<svg width="60" height="90" viewBox="0 0 60 90" fill="none" xmlns="http://www.w3.org/2000/svg">
<line x1="30" y1="60" x2="30" y2="90" stroke="black" stroke-width="4"/>
    <rect x="1" y="1" height="58" width="58" stroke="black" stroke-width="3" fill="white"/>
<path d="M14.6016 19.0312H9.83594L8.76562 22H7.21875L11.5625 10.625H12.875L17.2266 22H15.6875L14.6016 19.0312ZM10.2891 17.7969H14.1562L12.2188 12.4766L10.2891 17.7969ZM27.0312 18.3906C26.8906 19.5938 26.4453 20.5234 25.6953 21.1797C24.9505 21.8307 23.9583 22.1562 22.7188 22.1562C21.375 22.1562 20.2969 21.6745 19.4844 20.7109C18.6771 19.7474 18.2734 18.4583 18.2734 16.8438V15.75C18.2734 14.6927 18.4609 13.763 18.8359 12.9609C19.2161 12.1589 19.7526 11.5443 20.4453 11.1172C21.138 10.6849 21.9401 10.4688 22.8516 10.4688C24.0599 10.4688 25.0286 10.8073 25.7578 11.4844C26.487 12.1562 26.9115 13.0885 27.0312 14.2812H25.5234C25.3932 13.375 25.1094 12.7188 24.6719 12.3125C24.2396 11.9062 23.6328 11.7031 22.8516 11.7031C21.8932 11.7031 21.1406 12.0573 20.5938 12.7656C20.0521 13.474 19.7812 14.4818 19.7812 15.7891V16.8906C19.7812 18.125 20.0391 19.1068 20.5547 19.8359C21.0703 20.5651 21.7917 20.9297 22.7188 20.9297C23.5521 20.9297 24.1901 20.7422 24.6328 20.3672C25.0807 19.987 25.3776 19.3281 25.5234 18.3906H27.0312Z" fill="black"/>
<path d="M32.3203 47V35.625H35.5312C36.5208 35.625 37.3958 35.8438 38.1562 36.2812C38.9167 36.7188 39.5026 37.3411 39.9141 38.1484C40.3307 38.9557 40.5417 39.8828 40.5469 40.9297V41.6562C40.5469 42.7292 40.3385 43.6693 39.9219 44.4766C39.5104 45.2839 38.9193 45.9036 38.1484 46.3359C37.3828 46.7682 36.4896 46.9896 35.4688 47H32.3203ZM33.8203 36.8594V45.7734H35.3984C36.5547 45.7734 37.4531 45.4141 38.0938 44.6953C38.7396 43.9766 39.0625 42.9531 39.0625 41.625V40.9609C39.0625 39.6693 38.7578 38.6667 38.1484 37.9531C37.5443 37.2344 36.6849 36.8698 35.5703 36.8594H33.8203ZM51.1875 43.3906C51.0469 44.5938 50.6016 45.5234 49.8516 46.1797C49.1068 46.8307 48.1146 47.1562 46.875 47.1562C45.5312 47.1562 44.4531 46.6745 43.6406 45.7109C42.8333 44.7474 42.4297 43.4583 42.4297 41.8438V40.75C42.4297 39.6927 42.6172 38.763 42.9922 37.9609C43.3724 37.1589 43.9089 36.5443 44.6016 36.1172C45.2943 35.6849 46.0964 35.4688 47.0078 35.4688C48.2161 35.4688 49.1849 35.8073 49.9141 36.4844C50.6432 37.1562 51.0677 38.0885 51.1875 39.2812H49.6797C49.5495 38.375 49.2656 37.7188 48.8281 37.3125C48.3958 36.9062 47.7891 36.7031 47.0078 36.7031C46.0495 36.7031 45.2969 37.0573 44.75 37.7656C44.2083 38.474 43.9375 39.4818 43.9375 40.7891V41.8906C43.9375 43.125 44.1953 44.1068 44.7109 44.8359C45.2266 45.5651 45.9479 45.9297 46.875 45.9297C47.7083 45.9297 48.3464 45.7422 48.7891 45.3672C49.237 44.987 49.5339 44.3281 49.6797 43.3906H51.1875Z" fill="black"/>
<line x1="59" y1="1" x2="1" y2="59" stroke="black" stroke-width="2"/>
</svg>
