<svg width="60" height="90" viewBox="0 -30 60 90" fill="none" xmlns="http://www.w3.org/2000/svg">
    <line x1="30" y1="0" x2="30" y2="-30" stroke="black" stroke-width="4"/>
    <rect x="1" y="1" height="58" width="58" stroke="black" stroke-width="3" fill="white"/>
    <path d="M8.32031 22V10.625H11.5312C12.5208 10.625 13.3958 10.8438 14.1562 11.2812C14.9167 11.7188 15.5026 12.3411 15.9141 13.1484C16.3307 13.9557 16.5417 14.8828 16.5469 15.9297V16.6562C16.5469 17.7292 16.3385 18.6693 15.9219 19.4766C15.5104 20.2839 14.9193 20.9036 14.1484 21.3359C13.3828 21.7682 12.4896 21.9896 11.4688 22H8.32031ZM9.82031 11.8594V20.7734H11.3984C12.5547 20.7734 13.4531 20.4141 14.0938 19.6953C14.7396 18.9766 15.0625 17.9531 15.0625 16.625V15.9609C15.0625 14.6693 14.7578 13.6667 14.1484 12.9531C13.5443 12.2344 12.6849 11.8698 11.5703 11.8594H9.82031ZM27.1875 18.3906C27.0469 19.5938 26.6016 20.5234 25.8516 21.1797C25.1068 21.8307 24.1146 22.1562 22.875 22.1562C21.5312 22.1562 20.4531 21.6745 19.6406 20.7109C18.8333 19.7474 18.4297 18.4583 18.4297 16.8438V15.75C18.4297 14.6927 18.6172 13.763 18.9922 12.9609C19.3724 12.1589 19.9089 11.5443 20.6016 11.1172C21.2943 10.6849 22.0964 10.4688 23.0078 10.4688C24.2161 10.4688 25.1849 10.8073 25.9141 11.4844C26.6432 12.1562 27.0677 13.0885 27.1875 14.2812H25.6797C25.5495 13.375 25.2656 12.7188 24.8281 12.3125C24.3958 11.9062 23.7891 11.7031 23.0078 11.7031C22.0495 11.7031 21.2969 12.0573 20.75 12.7656C20.2083 13.474 19.9375 14.4818 19.9375 15.7891V16.8906C19.9375 18.125 20.1953 19.1068 20.7109 19.8359C21.2266 20.5651 21.9479 20.9297 22.875 20.9297C23.7083 20.9297 24.3464 20.7422 24.7891 20.3672C25.237 19.987 25.5339 19.3281 25.6797 18.3906H27.1875Z"
          fill="black"/>
    <path d="M38.6016 44.0312H33.8359L32.7656 47H31.2188L35.5625 35.625H36.875L41.2266 47H39.6875L38.6016 44.0312ZM34.2891 42.7969H38.1562L36.2188 37.4766L34.2891 42.7969ZM51.0312 43.3906C50.8906 44.5938 50.4453 45.5234 49.6953 46.1797C48.9505 46.8307 47.9583 47.1562 46.7188 47.1562C45.375 47.1562 44.2969 46.6745 43.4844 45.7109C42.6771 44.7474 42.2734 43.4583 42.2734 41.8438V40.75C42.2734 39.6927 42.4609 38.763 42.8359 37.9609C43.2161 37.1589 43.7526 36.5443 44.4453 36.1172C45.138 35.6849 45.9401 35.4688 46.8516 35.4688C48.0599 35.4688 49.0286 35.8073 49.7578 36.4844C50.487 37.1562 50.9115 38.0885 51.0312 39.2812H49.5234C49.3932 38.375 49.1094 37.7188 48.6719 37.3125C48.2396 36.9062 47.6328 36.7031 46.8516 36.7031C45.8932 36.7031 45.1406 37.0573 44.5938 37.7656C44.0521 38.474 43.7812 39.4818 43.7812 40.7891V41.8906C43.7812 43.125 44.0391 44.1068 44.5547 44.8359C45.0703 45.5651 45.7917 45.9297 46.7188 45.9297C47.5521 45.9297 48.1901 45.7422 48.6328 45.3672C49.0807 44.987 49.3776 44.3281 49.5234 43.3906H51.0312Z"
          fill="black"/>
    <line x1="59" y1="1" x2="1" y2="59" stroke="black" stroke-width="2"/>
</svg>
