<svg width="60" height="90" viewBox="0 0 60 90" fill="none" xmlns="http://www.w3.org/2000/svg">
<line x1="30" y1="60" x2="30" y2="90" stroke="black" stroke-width="4"/>
<circle cx="30" cy="30" r="28.5" fill="white" stroke="black" stroke-width="3"/>
<path d="M36.0371 35.1543C35.5228 35.8249 34.8099 36.3327 33.8984 36.6777C32.987 37.0228 31.9518 37.1953 30.793 37.1953C29.6016 37.1953 28.5469 36.9251 27.6289 36.3848C26.7109 35.8444 26.0013 35.0729 25.5 34.0703C25.0052 33.0612 24.748 31.8861 24.7285 30.5449V29.4316C24.7285 27.2832 25.2428 25.6068 26.2715 24.4023C27.3001 23.1914 28.7357 22.5859 30.5781 22.5859C32.1602 22.5859 33.4167 22.9766 34.3477 23.7578C35.2786 24.5391 35.8385 25.6654 36.0273 27.1367H33.6055C33.332 25.4245 32.3392 24.5684 30.627 24.5684C29.5202 24.5684 28.6771 24.9688 28.0977 25.7695C27.5247 26.5638 27.2285 27.7324 27.209 29.2754V30.3691C27.209 31.9056 27.5312 33.1003 28.1758 33.9531C28.8268 34.7995 29.7285 35.2227 30.8809 35.2227C32.1439 35.2227 33.0423 34.9362 33.5762 34.3633V31.5801H30.6465V29.7051H36.0371V35.1543Z" fill="black"/>
</svg>
